# xmcd
#
# Track frame offsets: 
#        150
#        15430
#        32357
#        45710
#        67330
#        84900
#        103027
#        118310
#        140492
#        158577
#        184650
#        204330
#        222735
#        240034
#        257365
#        277532
#        298035
#        319627
#        337975
#
# Disc length: 4757 seconds
#
# Revision: 4
# Processed by: cddbd v1.5.2PL0 Copyright (c) Steve Scherf et al.
# Submitted via: ExactAudioCopyFreeDBPlugin 1.0
#
DISCID=00129313
DTITLE=The Four Tops - Four Tops:  Fourever [box set]
DYEAR=2001
DGENRE=Soul
TTITLE0=One Chain Don't Make No Prison (original album mix)
TTITLE1=Midnight Flower (Live) (original album mix)
TTITLE2=Seven Lonely Nights (original album mix)
TTITLE3=We All Gotta Stick Together (original album mix)
TTITLE4=Catfish (original album mix)
TTITLE5=For Your Love (12" single version)
TTITLE6=When She Was My Girl (original album mix)
TTITLE7=Tonight I'm Gonna Love You All Over (live)
TTITLE8=I Believe in You and Me (original album mix)
TTITLE9=The Temptations and Four Tops Medley (live) (orignal 12" singl
TTITLE9=e version)
TTITLE10=I Just Can't Walk Away (original album mix)
TTITLE11=Sexy Ways (single mix)
TTITLE12=Hot Nights
TTITLE13=Red Hot Love
TTITLE14=Indestructible (12" single edit) (ft Smokey Robinson)
TTITLE15=Loco in Acapulco (original album mix)
TTITLE16=If Ever a Love Was There (ft Aretha Franklin and Kenny G.)
TTITLE17=Till You Return to Me (with Grover Washington, Jr.)
TTITLE18=The Four of Us
EXTD=
EXTT0=
EXTT1=
EXTT2=
EXTT3=
EXTT4=
EXTT5=
EXTT6=
EXTT7=
EXTT8=
EXTT9=
EXTT10=
EXTT11=
EXTT12=
EXTT13=
EXTT14=
EXTT15=
EXTT16=
EXTT17=
EXTT18=
PLAYORDER=
